<svg version="1.1" id="Layer_1" xmlns="http://www.w3.org/2000/svg" xmlns:xlink="http://www.w3.org/1999/xlink" x="0px" y="0px"
	 width="100%" viewBox="0 0 963 806" enable-background="new 0 0 963 806" xml:space="preserve">
<path fill="#FEFEFE" opacity="1.000000" stroke="none" 
	d="
M555.000000,807.000000 
	C370.000000,807.000000 185.500000,807.000000 1.000000,807.000000 
	C1.000000,538.333313 1.000000,269.666656 1.000000,1.000000 
	C322.000000,1.000000 643.000000,1.000000 964.000000,1.000000 
	C964.000000,269.666656 964.000000,538.333313 964.000000,807.000000 
	C827.833313,807.000000 691.666687,807.000000 555.000000,807.000000 
M715.766907,588.988586 
	C718.866272,585.968750 721.859863,582.827881 725.113464,579.984558 
	C726.553467,578.726196 728.782288,576.984863 730.201782,577.328125 
	C736.408813,578.829468 742.514771,580.835266 748.535828,582.996704 
	C756.270569,585.773438 763.879089,588.899963 771.559509,591.829895 
	C783.375000,596.337219 795.218323,600.771729 807.019287,605.316650 
	C809.627075,606.321045 812.017395,607.934998 814.662659,608.788818 
	C822.373535,611.277466 832.059448,611.266357 831.751770,623.214355 
	C831.747986,623.363831 831.900146,623.511169 831.949280,623.668945 
	C834.889648,633.107300 839.972595,640.948669 848.242798,646.697571 
	C859.102905,654.246704 871.038147,656.117859 883.243408,651.999573 
	C891.969543,649.055237 899.053345,643.446899 904.527771,635.226624 
	C915.133240,619.301575 910.866638,597.776489 898.946960,585.521973 
	C892.076660,578.458618 883.234802,575.264832 873.616455,574.142883 
	C870.031128,573.724731 865.889404,572.496033 862.893494,573.756775 
	C856.473450,576.458679 850.694641,580.652771 844.517944,583.984985 
	C842.809082,584.906738 840.323486,585.813293 838.705261,585.252502 
	C825.967651,580.838562 813.326538,576.139954 800.708923,571.387573 
	C782.518188,564.535889 764.414246,557.450867 746.170715,550.744446 
	C742.634155,549.444397 741.380981,547.591125 741.955322,544.150818 
	C742.227478,542.520691 742.770569,540.929443 742.966064,539.293762 
	C743.906189,531.428589 745.395630,523.562256 745.497131,515.681030 
	C745.616272,506.427948 744.348083,497.163483 744.088867,487.892548 
	C744.047119,486.399963 745.833435,484.393585 747.304138,483.447144 
	C748.881226,482.432220 751.070679,482.325653 753.014893,481.931366 
	C764.170532,479.669281 775.357544,477.555298 786.485352,475.165100 
	C796.934570,472.920746 807.300293,470.288971 817.744629,468.020142 
	C832.760559,464.758209 847.827209,461.729645 862.843201,458.467834 
	C866.681580,457.634064 869.410400,457.804199 872.280823,461.406769 
	C888.460083,481.713287 921.433899,480.723358 936.207031,458.326141 
	C945.939331,443.571411 945.121277,420.951141 931.239014,407.747925 
	C909.224854,386.810516 874.115173,395.707245 864.861694,424.693970 
	C864.365234,426.249176 862.513733,427.984650 860.933960,428.471832 
	C855.081909,430.276581 849.110046,431.730896 843.127197,433.065765 
	C828.150574,436.407318 813.179626,439.791992 798.139404,442.827393 
	C777.067688,447.080048 755.878784,450.770294 734.869141,455.300018 
	C729.769531,456.399506 727.673950,453.791199 725.527039,450.835480 
	C716.869080,438.915863 707.059998,428.251160 694.275879,420.635834 
	C689.453979,417.763580 688.693848,413.636017 692.690552,409.806213 
	C695.049194,407.546051 697.850464,405.699066 700.617249,403.922577 
	C709.500305,398.218872 718.486633,392.676331 727.381470,386.990692 
	C734.338684,382.543610 741.170105,377.897278 748.184875,373.544922 
	C749.272034,372.870422 751.115417,372.970551 752.482483,373.277222 
	C756.155212,374.101074 759.832825,375.023346 763.377075,376.277924 
	C774.094360,380.071411 784.305420,376.842773 792.531372,371.150665 
	C806.147766,361.728455 812.919983,348.110291 809.918457,330.773773 
	C806.876282,313.202942 795.768799,302.445160 779.461792,298.602203 
	C767.969910,295.893982 756.180359,297.437195 745.866699,306.186493 
	C735.889282,314.650604 731.518311,324.881958 731.187561,337.218140 
	C731.020020,343.464996 730.515564,347.609467 723.822571,351.438416 
	C711.173523,358.674805 699.791321,368.130463 687.910706,376.702911 
	C682.272766,380.771057 680.282837,380.580750 675.758484,375.428314 
	C675.245361,374.844025 674.409241,374.543427 673.479248,373.882538 
	C673.479248,373.882538 673.429626,373.552124 673.592651,372.967621 
	C673.310059,372.723999 673.027466,372.480408 672.269592,371.743622 
	C659.584717,348.962982 638.839661,336.261810 615.270752,327.013214 
	C616.108948,325.428711 616.587036,324.375488 617.192810,323.401733 
	C634.620056,295.387787 652.200928,267.467773 669.390076,239.308609 
	C673.246521,232.991058 676.552063,227.271744 685.297974,230.386841 
	C685.443420,230.438644 685.628235,230.378754 685.794739,230.373047 
	C703.064819,229.780869 717.697327,218.073181 721.794373,201.569229 
	C725.930237,184.908432 718.634155,167.789780 703.724304,159.172226 
	C689.001892,150.663010 670.557251,153.083557 658.031189,165.168747 
	C645.955811,176.819138 643.164429,195.649567 651.712158,210.723297 
	C653.653992,214.147720 653.501282,216.415375 651.493958,219.634903 
	C632.981018,249.327652 614.643127,279.129547 596.248535,308.896118 
	C595.050842,310.834198 593.805298,312.742706 592.662109,314.539124 
	C580.878784,305.914520 569.605591,297.410675 558.032166,289.337158 
	C554.264954,286.709198 553.515015,284.140198 554.454590,279.773834 
	C567.073364,221.128433 579.580627,162.458633 591.860718,103.741570 
	C592.951965,98.523720 594.859314,96.097885 600.232483,94.639969 
	C617.344788,89.996857 628.247314,73.952087 627.359192,56.076313 
	C626.525269,39.290165 613.803650,24.456640 597.353027,21.088556 
	C580.000854,17.535891 562.769958,25.854956 555.126099,41.475739 
	C547.415283,57.233406 551.199829,76.198158 564.718933,87.280823 
	C567.838684,89.838394 568.313904,92.056221 567.516907,95.743240 
	C555.863464,149.651718 544.362854,203.593231 532.804810,257.522339 
	C531.423462,263.967377 529.918152,270.385864 528.759338,275.532501 
	C508.005219,273.545410 488.041290,271.634003 467.457581,269.663239 
	C467.409821,269.109406 467.227112,267.488190 467.136200,265.861847 
	C465.573792,237.910706 464.143219,209.951172 462.346558,182.015152 
	C462.057770,177.525314 463.225037,175.322403 467.188141,173.089279 
	C483.090607,164.128601 489.947388,144.864349 483.850037,127.724213 
	C477.655518,110.310860 460.092957,99.896378 441.876556,102.834206 
	C425.497650,105.475700 412.671661,118.387642 410.266754,134.655914 
	C407.743042,151.727676 416.413818,167.773911 432.247253,175.152908 
	C434.552246,176.227142 436.575775,176.904953 436.760376,180.207413 
	C438.490204,211.153107 440.339569,242.092712 442.348572,273.021454 
	C442.590820,276.750671 441.152191,278.366241 437.998291,279.687073 
	C431.891663,282.244415 425.927063,285.140869 419.223236,288.088776 
	C408.380981,296.145508 396.400421,299.100311 383.100830,296.152924 
	C382.941132,296.117523 382.767365,296.126312 382.601990,296.138824 
	C379.538025,296.369995 377.732025,295.065857 376.567078,292.114105 
	C374.612244,287.160858 372.228638,282.377594 370.051697,277.511078 
	C342.022095,214.852325 314.032623,152.175552 285.878174,89.572960 
	C284.285309,86.031235 284.629150,83.810455 286.852844,80.691360 
	C295.623901,68.388596 296.894714,54.947540 290.232880,41.468422 
	C283.670685,28.190851 272.412567,20.925095 257.520020,20.272732 
	C237.046783,19.375904 219.053818,35.675014 218.112167,55.517151 
	C217.051865,77.859390 232.335327,95.139664 254.850739,96.407516 
	C259.240875,96.654724 261.662018,97.873405 262.790527,101.946655 
	C263.010223,102.739738 263.465759,103.467079 263.808685,104.226471 
	C293.154938,169.212601 322.481171,234.207794 351.907043,299.157837 
	C353.319580,302.275696 352.879395,303.652252 349.807770,305.323029 
	C332.681763,314.638458 318.393341,327.135193 307.950439,343.777008 
	C307.284424,344.838409 306.426147,345.779144 305.616150,346.829407 
	C304.922089,346.299591 304.441528,346.070740 304.155060,345.694244 
	C289.832977,326.871063 275.456146,308.088226 261.357330,289.098999 
	C260.244293,287.599884 260.331909,284.344879 261.131714,282.438934 
	C264.686371,273.968384 265.636658,265.401947 263.183197,256.554962 
	C257.549133,236.238831 237.127762,224.353424 216.870010,229.517090 
	C196.949951,234.594681 184.806656,254.600555 189.206345,275.092590 
	C193.477707,294.987030 213.498062,307.892670 234.065506,303.712189 
	C237.351944,303.044220 239.228622,303.598846 241.207779,306.220978 
	C251.643311,320.046783 262.253693,333.740479 272.761047,347.512329 
	C276.944519,352.995514 281.019226,358.561676 285.312225,364.316284 
	C283.888397,365.048309 283.187866,365.501099 282.424805,365.787170 
	C263.899902,372.731750 247.427856,382.879181 233.766541,397.291595 
	C231.386307,399.802734 229.627899,398.879639 227.283005,397.507385 
	C188.606781,374.873322 149.909210,352.275604 111.166962,329.754852 
	C108.343544,328.113647 107.338249,326.316132 107.679024,322.953827 
	C108.973869,310.178009 104.801971,299.175629 95.300591,290.616089 
	C80.642838,277.411407 58.815830,277.601990 44.197086,290.660950 
	C30.167446,303.193634 27.616697,325.555847 38.486996,340.720856 
	C50.233711,357.108551 71.160606,361.969299 88.581123,351.980316 
	C92.302620,349.846436 94.962738,349.928680 98.544968,352.051025 
	C135.953842,374.213928 173.455383,396.220306 210.926254,418.278564 
	C217.024643,421.868561 216.429825,421.725342 214.496246,428.679626 
	C211.620117,439.023834 209.665909,449.624420 206.986633,460.788055 
	C207.022049,462.486053 207.057480,464.184082 206.642761,466.713287 
	C206.703415,470.858490 206.217026,475.100372 206.929489,479.130341 
	C208.896637,490.257416 211.290634,501.311920 213.672836,512.361267 
	C214.577438,516.557068 213.151886,519.275391 209.651459,521.609131 
	C193.723755,532.228516 177.824219,542.894592 162.093933,553.802551 
	C158.289276,556.440857 155.318802,556.481567 151.177383,554.441833 
	C136.242599,547.086060 121.902962,549.163818 109.016182,559.215454 
	C96.655060,568.857178 92.013458,586.055969 96.801308,601.245117 
	C101.548744,616.306091 115.096359,627.286377 130.490387,628.549927 
	C146.803940,629.888977 161.394501,621.505798 169.011246,606.908813 
	C172.819382,599.610779 173.510452,591.950378 172.667877,584.098450 
	C172.209641,579.828125 173.667984,577.470825 177.164566,575.189575 
	C193.617462,564.455444 210.007446,553.614868 226.158447,542.434631 
	C230.508133,539.423584 232.814117,539.948730 236.555710,543.549683 
	C266.823792,572.679932 302.249176,583.375732 343.424133,572.416016 
	C349.467285,570.807495 355.454590,570.781921 360.806244,574.190369 
	C366.822296,578.021973 372.428101,582.491516 378.342346,586.491333 
	C382.090607,589.026306 382.581573,592.133362 381.767334,596.393982 
	C377.112427,620.750549 372.632507,645.141785 368.328125,669.562683 
	C367.656647,673.372375 365.301208,674.471924 362.397980,676.053650 
	C356.502747,679.265625 350.131927,682.260559 345.412506,686.843628 
	C334.274689,697.659729 332.425079,716.405823 340.026154,730.450317 
	C347.810242,744.832947 364.333893,752.979492 379.887115,749.976135 
	C395.976105,746.869507 406.716522,737.392456 410.685944,721.584595 
	C414.834900,705.061829 409.114960,691.388428 395.797363,681.006042 
	C393.348694,679.097046 392.410156,677.470642 393.031708,674.367126 
	C398.031952,649.400024 402.950745,624.415894 407.700562,599.400208 
	C408.398743,595.723206 409.955719,594.801331 413.603241,594.423767 
	C426.972290,593.039673 440.319031,591.317505 453.591949,589.205627 
	C457.405975,588.598755 460.240051,588.934937 463.270203,591.292725 
	C472.465973,598.448242 482.659821,603.812134 494.256195,605.579529 
	C501.547119,606.690735 506.822906,610.206909 511.314209,615.756531 
	C513.886902,618.935486 517.079712,621.612549 520.278320,625.183472 
	C525.649658,629.103577 531.132751,632.883362 536.327271,637.025208 
	C537.984192,638.346313 539.575439,640.490112 539.971069,642.498901 
	C540.801758,646.717163 540.789307,651.098083 541.176880,655.407410 
	C543.099548,676.785461 544.953857,698.170410 547.045837,719.531921 
	C547.464966,723.811890 547.025879,726.946716 542.463257,728.639587 
	C540.510986,729.364014 538.855591,730.980591 537.173157,732.326538 
	C522.195007,744.309387 518.738220,765.885925 529.129150,782.338013 
	C539.226135,798.324707 560.671692,804.682129 577.473267,796.455078 
	C591.419189,789.626404 599.045471,778.160278 599.554688,762.764282 
	C600.075928,747.004944 592.435547,735.331299 578.771851,727.810181 
	C575.313354,725.906555 573.694519,723.886169 573.336426,719.893799 
	C572.102966,706.143799 570.367981,692.439575 568.989685,678.701355 
	C568.402527,672.849304 568.224792,666.956177 567.783569,659.830444 
	C573.090393,662.910217 577.306641,665.408508 581.570435,667.822937 
	C604.028503,680.539734 627.325684,683.439697 651.522583,673.322693 
	C657.963074,670.629822 664.123291,667.237549 670.298889,663.953369 
	C672.920471,662.559082 674.764832,662.682373 676.836060,664.945740 
	C683.129028,671.822449 689.563599,678.570862 696.005432,685.309448 
	C698.116455,687.517639 698.312439,689.719666 697.223145,692.564697 
	C694.625488,699.348999 693.680847,706.318359 695.131165,713.613586 
	C698.336548,729.736694 710.032593,741.320190 726.620605,744.445862 
	C740.781738,747.114197 756.718323,739.951233 764.960510,727.213379 
	C773.347656,714.251770 773.085022,697.070007 763.732300,684.465942 
	C753.571411,670.772705 739.817078,666.213745 723.176331,669.545654 
	C721.238464,669.933716 718.191589,669.567200 717.034790,668.297180 
	C709.419189,659.936707 702.092346,651.305298 694.907715,642.567871 
	C693.722656,641.126709 692.936890,638.584290 693.275330,636.798828 
	C694.637695,629.611633 696.277405,622.455505 698.255737,615.411743 
	C701.189636,604.965942 705.966431,595.560974 715.766907,588.988586 
z"/>
<path fill="#CF2893" opacity="1.000000" stroke="none" 
	d="
M207.319336,460.115875 
	C209.665909,449.624420 211.620117,439.023834 214.496246,428.679626 
	C216.429825,421.725342 217.024643,421.868561 210.926254,418.278564 
	C173.455383,396.220306 135.953842,374.213928 98.544968,352.051025 
	C94.962738,349.928680 92.302620,349.846436 88.581123,351.980316 
	C71.160606,361.969299 50.233711,357.108551 38.486996,340.720856 
	C27.616697,325.555847 30.167446,303.193634 44.197086,290.660950 
	C58.815830,277.601990 80.642838,277.411407 95.300591,290.616089 
	C104.801971,299.175629 108.973869,310.178009 107.679024,322.953827 
	C107.338249,326.316132 108.343544,328.113647 111.166962,329.754852 
	C149.909210,352.275604 188.606781,374.873322 227.283005,397.507385 
	C229.627899,398.879639 231.386307,399.802734 233.766541,397.291595 
	C247.427856,382.879181 263.899902,372.731750 282.424805,365.787170 
	C283.187866,365.501099 283.888397,365.048309 285.312225,364.316284 
	C281.019226,358.561676 276.944519,352.995514 272.761047,347.512329 
	C262.253693,333.740479 251.643311,320.046783 241.207779,306.220978 
	C239.228622,303.598846 237.351944,303.044220 234.065506,303.712189 
	C213.498062,307.892670 193.477707,294.987030 189.206345,275.092590 
	C184.806656,254.600555 196.949951,234.594681 216.870010,229.517090 
	C237.127762,224.353424 257.549133,236.238831 263.183197,256.554962 
	C265.636658,265.401947 264.686371,273.968384 261.131714,282.438934 
	C260.331909,284.344879 260.244293,287.599884 261.357330,289.098999 
	C275.456146,308.088226 289.832977,326.871063 304.155060,345.694244 
	C304.441528,346.070740 304.922089,346.299591 305.616150,346.829407 
	C306.426147,345.779144 307.284424,344.838409 307.950439,343.777008 
	C318.393341,327.135193 332.681763,314.638458 349.807770,305.323029 
	C352.879395,303.652252 353.319580,302.275696 351.907043,299.157837 
	C322.481171,234.207794 293.154938,169.212601 263.808685,104.226471 
	C263.465759,103.467079 263.010223,102.739738 262.790527,101.946655 
	C261.662018,97.873405 259.240875,96.654724 254.850739,96.407516 
	C232.335327,95.139664 217.051865,77.859390 218.112167,55.517151 
	C219.053818,35.675014 237.046783,19.375904 257.520020,20.272732 
	C272.412567,20.925095 283.670685,28.190851 290.232880,41.468422 
	C296.894714,54.947540 295.623901,68.388596 286.852844,80.691360 
	C284.629150,83.810455 284.285309,86.031235 285.878174,89.572960 
	C314.032623,152.175552 342.022095,214.852325 370.051697,277.511078 
	C372.228638,282.377594 374.612244,287.160858 376.567078,292.114105 
	C377.732025,295.065857 379.538025,296.369995 382.601990,296.138824 
	C382.767365,296.126312 382.941132,296.117523 383.100830,296.152924 
	C396.400421,299.100311 408.380981,296.145508 419.742249,288.297272 
	C421.342499,290.342285 422.718994,292.068207 423.454895,294.033997 
	C427.074890,303.704163 430.524841,313.437958 433.861145,323.429871 
	C430.346283,325.894470 426.997711,328.067352 423.665436,330.264923 
	C417.675110,334.215424 411.312164,336.389465 403.925507,335.850464 
	C397.304565,335.367371 390.616730,335.531647 383.968842,335.741272 
	C368.850159,336.218079 357.026154,343.350220 347.440887,354.570557 
	C339.926910,363.366241 335.700623,373.887604 332.809723,384.888367 
	C330.734436,392.785431 325.882629,397.120483 318.140747,398.627991 
	C315.368988,399.167694 312.576996,399.679840 309.769745,399.949280 
	C286.059479,402.224792 267.008331,412.547089 255.074158,433.488739 
	C250.208908,442.026093 247.550064,451.820862 243.479492,461.095703 
	C241.955734,461.440704 240.851074,461.929596 239.722137,461.994202 
	C232.953751,462.381531 226.182068,462.838135 219.406784,462.932343 
	C215.218597,462.990570 210.560364,464.386780 207.319336,460.115875 
z"/>
<path fill="#28469C" opacity="1.000000" stroke="none" 
	d="
M434.034851,323.149292 
	C430.524841,313.437958 427.074890,303.704163 423.454895,294.033997 
	C422.718994,292.068207 421.342499,290.342285 420.082458,288.201294 
	C425.927063,285.140869 431.891663,282.244415 437.998291,279.687073 
	C441.152191,278.366241 442.590820,276.750671 442.348572,273.021454 
	C440.339569,242.092712 438.490204,211.153107 436.760376,180.207413 
	C436.575775,176.904953 434.552246,176.227142 432.247253,175.152908 
	C416.413818,167.773911 407.743042,151.727676 410.266754,134.655914 
	C412.671661,118.387642 425.497650,105.475700 441.876556,102.834206 
	C460.092957,99.896378 477.655518,110.310860 483.850037,127.724213 
	C489.947388,144.864349 483.090607,164.128601 467.188141,173.089279 
	C463.225037,175.322403 462.057770,177.525314 462.346558,182.015152 
	C464.143219,209.951172 465.573792,237.910706 467.136200,265.861847 
	C467.227112,267.488190 467.409821,269.109406 467.457581,269.663239 
	C488.041290,271.634003 508.005219,273.545410 528.759338,275.532501 
	C529.918152,270.385864 531.423462,263.967377 532.804810,257.522339 
	C544.362854,203.593231 555.863464,149.651718 567.516907,95.743240 
	C568.313904,92.056221 567.838684,89.838394 564.718933,87.280823 
	C551.199829,76.198158 547.415283,57.233406 555.126099,41.475739 
	C562.769958,25.854956 580.000854,17.535891 597.353027,21.088556 
	C613.803650,24.456640 626.525269,39.290165 627.359192,56.076313 
	C628.247314,73.952087 617.344788,89.996857 600.232483,94.639969 
	C594.859314,96.097885 592.951965,98.523720 591.860718,103.741570 
	C579.580627,162.458633 567.073364,221.128433 554.454590,279.773834 
	C553.515015,284.140198 554.264954,286.709198 558.032166,289.337158 
	C569.605591,297.410675 580.878784,305.914520 592.662109,314.539124 
	C593.805298,312.742706 595.050842,310.834198 596.248535,308.896118 
	C614.643127,279.129547 632.981018,249.327652 651.493958,219.634903 
	C653.501282,216.415375 653.653992,214.147720 651.712158,210.723297 
	C643.164429,195.649567 645.955811,176.819138 658.031189,165.168747 
	C670.557251,153.083557 689.001892,150.663010 703.724304,159.172226 
	C718.634155,167.789780 725.930237,184.908432 721.794373,201.569229 
	C717.697327,218.073181 703.064819,229.780869 685.794739,230.373047 
	C685.628235,230.378754 685.443420,230.438644 685.297974,230.386841 
	C676.552063,227.271744 673.246521,232.991058 669.390076,239.308609 
	C652.200928,267.467773 634.620056,295.387787 617.192810,323.401733 
	C616.587036,324.375488 616.108948,325.428711 615.270752,327.013214 
	C638.839661,336.261810 659.584717,348.962982 672.517944,372.252258 
	C672.987427,373.024628 673.208557,373.288361 673.429626,373.552124 
	C673.429626,373.552124 673.479248,373.882538 673.574463,374.340576 
	C673.700562,375.485107 673.731323,376.171661 673.392334,376.864258 
	C671.204590,377.562256 669.278931,378.056519 667.586914,378.979340 
	C659.084595,383.616730 650.643372,388.366150 641.895874,392.885956 
	C639.531616,390.099426 637.483276,387.477509 635.367432,384.911285 
	C626.632385,374.316986 616.087830,366.021545 602.198669,364.424774 
	C586.121704,362.576385 574.817932,354.667694 564.161499,342.731628 
	C541.849854,317.740692 512.715942,307.718872 479.450653,309.316498 
	C463.148376,310.099457 448.256104,315.526398 434.034851,323.149292 
z"/>
<path fill="#F4AE1A" opacity="1.000000" stroke="none" 
	d="
M519.993347,624.515564 
	C517.079712,621.612549 513.886902,618.935486 511.314209,615.756531 
	C506.822906,610.206909 501.547119,606.690735 494.256195,605.579529 
	C482.659821,603.812134 472.465973,598.448242 463.270203,591.292725 
	C460.240051,588.934937 457.405975,588.598755 453.591949,589.205627 
	C440.319031,591.317505 426.972290,593.039673 413.603241,594.423767 
	C409.955719,594.801331 408.398743,595.723206 407.700562,599.400208 
	C402.950745,624.415894 398.031952,649.400024 393.031708,674.367126 
	C392.410156,677.470642 393.348694,679.097046 395.797363,681.006042 
	C409.114960,691.388428 414.834900,705.061829 410.685944,721.584595 
	C406.716522,737.392456 395.976105,746.869507 379.887115,749.976135 
	C364.333893,752.979492 347.810242,744.832947 340.026154,730.450317 
	C332.425079,716.405823 334.274689,697.659729 345.412506,686.843628 
	C350.131927,682.260559 356.502747,679.265625 362.397980,676.053650 
	C365.301208,674.471924 367.656647,673.372375 368.328125,669.562683 
	C372.632507,645.141785 377.112427,620.750549 381.767334,596.393982 
	C382.581573,592.133362 382.090607,589.026306 378.342346,586.491333 
	C372.428101,582.491516 366.822296,578.021973 360.806244,574.190369 
	C355.454590,570.781921 349.467285,570.807495 343.424133,572.416016 
	C302.249176,583.375732 266.823792,572.679932 236.555710,543.549683 
	C232.814117,539.948730 230.508133,539.423584 226.158447,542.434631 
	C210.007446,553.614868 193.617462,564.455444 177.164566,575.189575 
	C173.667984,577.470825 172.209641,579.828125 172.667877,584.098450 
	C173.510452,591.950378 172.819382,599.610779 169.011246,606.908813 
	C161.394501,621.505798 146.803940,629.888977 130.490387,628.549927 
	C115.096359,627.286377 101.548744,616.306091 96.801308,601.245117 
	C92.013458,586.055969 96.655060,568.857178 109.016182,559.215454 
	C121.902962,549.163818 136.242599,547.086060 151.177383,554.441833 
	C155.318802,556.481567 158.289276,556.440857 162.093933,553.802551 
	C177.824219,542.894592 193.723755,532.228516 209.651459,521.609131 
	C213.151886,519.275391 214.577438,516.557068 213.672836,512.361267 
	C211.290634,501.311920 208.896637,490.257416 206.929489,479.130341 
	C206.217026,475.100372 206.703415,470.858490 207.246094,466.304688 
	C219.727921,465.917511 231.606384,465.938904 243.578201,466.396454 
	C244.489365,483.242523 249.645157,498.023041 259.763367,511.105652 
	C276.586273,532.857178 305.598358,544.423889 332.575562,534.920288 
	C341.046295,531.936279 349.562897,529.076660 358.104492,526.301697 
	C364.118866,524.347778 369.239288,526.377808 373.667969,530.471741 
	C375.742188,532.389221 377.543884,534.598999 379.586395,536.553833 
	C383.784302,540.571533 387.578430,545.260498 392.390808,548.342834 
	C411.240540,560.416138 430.459808,558.122681 448.323090,546.700012 
	C457.351227,540.927002 464.321411,543.074646 471.615387,547.936279 
	C477.402863,551.793823 482.628052,556.506104 488.029205,560.928833 
	C493.510376,565.417175 499.369812,569.588135 506.531952,570.088562 
	C524.842651,571.368042 535.621582,583.027344 544.770630,597.038269 
	C537.391846,604.925110 530.280396,612.597473 523.219360,620.316040 
	C522.032227,621.613647 521.063171,623.110657 519.993347,624.515564 
z"/>
<path fill="#9ECC41" opacity="1.000000" stroke="none" 
	d="
M520.135864,624.849487 
	C521.063171,623.110657 522.032227,621.613647 523.219360,620.316040 
	C530.280396,612.597473 537.391846,604.925110 545.130249,597.090149 
	C556.302490,601.390930 566.867188,605.756470 577.327942,610.358154 
	C579.345520,611.245728 581.247009,612.807556 582.700073,614.491516 
	C587.145325,619.643311 590.874573,625.490906 595.721191,630.205505 
	C620.741943,654.544312 653.025452,635.231506 659.380920,614.556580 
	C661.318298,608.254028 661.699280,601.489563 663.222778,595.038086 
	C664.419922,589.968384 664.952393,583.856262 668.134888,580.335999 
	C673.733276,574.143494 681.131226,569.577942 688.055420,564.598267 
	C697.407959,572.284119 706.480713,579.702881 715.402832,587.408447 
	C715.183960,588.115234 715.115723,588.535278 715.047485,588.955261 
	C705.966431,595.560974 701.189636,604.965942 698.255737,615.411743 
	C696.277405,622.455505 694.637695,629.611633 693.275330,636.798828 
	C692.936890,638.584290 693.722656,641.126709 694.907715,642.567871 
	C702.092346,651.305298 709.419189,659.936707 717.034790,668.297180 
	C718.191589,669.567200 721.238464,669.933716 723.176331,669.545654 
	C739.817078,666.213745 753.571411,670.772705 763.732300,684.465942 
	C773.085022,697.070007 773.347656,714.251770 764.960510,727.213379 
	C756.718323,739.951233 740.781738,747.114197 726.620605,744.445862 
	C710.032593,741.320190 698.336548,729.736694 695.131165,713.613586 
	C693.680847,706.318359 694.625488,699.348999 697.223145,692.564697 
	C698.312439,689.719666 698.116455,687.517639 696.005432,685.309448 
	C689.563599,678.570862 683.129028,671.822449 676.836060,664.945740 
	C674.764832,662.682373 672.920471,662.559082 670.298889,663.953369 
	C664.123291,667.237549 657.963074,670.629822 651.522583,673.322693 
	C627.325684,683.439697 604.028503,680.539734 581.570435,667.822937 
	C577.306641,665.408508 573.090393,662.910217 567.783569,659.830444 
	C568.224792,666.956177 568.402527,672.849304 568.989685,678.701355 
	C570.367981,692.439575 572.102966,706.143799 573.336426,719.893799 
	C573.694519,723.886169 575.313354,725.906555 578.771851,727.810181 
	C592.435547,735.331299 600.075928,747.004944 599.554688,762.764282 
	C599.045471,778.160278 591.419189,789.626404 577.473267,796.455078 
	C560.671692,804.682129 539.226135,798.324707 529.129150,782.338013 
	C518.738220,765.885925 522.195007,744.309387 537.173157,732.326538 
	C538.855591,730.980591 540.510986,729.364014 542.463257,728.639587 
	C547.025879,726.946716 547.464966,723.811890 547.045837,719.531921 
	C544.953857,698.170410 543.099548,676.785461 541.176880,655.407410 
	C540.789307,651.098083 540.801758,646.717163 539.971069,642.498901 
	C539.575439,640.490112 537.984192,638.346313 536.327271,637.025208 
	C531.132751,632.883362 525.649658,629.103577 520.135864,624.849487 
z"/>
<path fill="#B2EFF5" opacity="1.000000" stroke="none" 
	d="
M715.407227,588.971924 
	C715.115723,588.535278 715.183960,588.115234 715.667480,587.277222 
	C718.218628,584.323059 720.793579,582.034241 722.393005,579.195740 
	C725.150452,574.301941 728.716736,573.395935 733.552063,575.585449 
	C734.455872,575.994690 735.469055,576.154663 736.403259,576.505615 
	C767.412964,588.150818 798.410889,599.827454 829.438416,611.424988 
	C832.639526,612.621521 833.428223,614.873047 833.694641,617.967529 
	C835.019104,633.349243 845.588684,645.832581 860.844482,650.277771 
	C874.873047,654.365295 891.836182,648.685913 900.678894,636.941040 
	C912.476868,621.270813 910.458862,599.484009 895.976807,586.176331 
	C882.061157,573.389099 860.365112,573.356384 845.897583,586.237305 
	C843.519836,588.354309 841.455750,589.078552 838.305420,587.828430 
	C830.880798,584.881958 823.252380,582.453308 815.786438,579.605530 
	C791.365906,570.290344 766.988464,560.862244 742.571594,551.537415 
	C740.020874,550.563354 738.711609,549.227112 739.380310,546.324890 
	C743.925232,526.600952 743.468140,506.693848 741.334167,486.753845 
	C740.956299,483.223633 742.078491,481.677216 745.661804,481.036102 
	C754.664429,479.425354 763.605286,477.463104 772.557861,475.580078 
	C803.813965,469.005890 835.078674,462.470428 866.296204,455.717407 
	C869.516907,455.020691 871.007751,455.932159 872.887695,458.320953 
	C881.910583,469.785950 893.690308,475.131744 908.354187,473.213257 
	C926.175049,470.881805 939.970398,455.809601 940.400696,438.398438 
	C940.904419,418.018738 928.835938,402.741943 909.382202,399.133911 
	C891.763245,395.866211 873.553955,406.350555 867.975159,423.690247 
	C866.349915,428.741791 863.772888,430.873230 858.886536,431.902588 
	C835.284119,436.874390 811.759583,442.215973 788.155396,447.179291 
	C770.742920,450.840637 753.252625,454.132263 735.792236,457.564667 
	C731.134033,458.480377 727.636047,458.037354 724.441650,453.221283 
	C716.079651,440.614258 705.042236,430.453827 692.384155,422.127380 
	C686.880310,418.507050 686.013672,413.240204 690.386719,408.325775 
	C691.581177,406.983429 693.135681,405.909119 694.660706,404.921417 
	C710.587036,394.606598 726.683655,384.545807 742.406189,373.930511 
	C747.585144,370.433899 752.121826,368.851074 757.591980,372.567780 
	C758.253845,373.017548 759.148621,373.136353 759.945923,373.373383 
	C777.106873,378.475464 796.214600,370.611877 803.847107,355.310944 
	C812.351074,338.262939 808.166626,318.928589 793.551514,307.739502 
	C781.385132,298.425079 765.023071,297.371185 751.720215,305.045013 
	C738.682007,312.566193 731.675903,327.441833 733.557373,342.788788 
	C733.812927,344.873535 733.009888,348.151550 731.513123,349.222504 
	C717.033569,359.582886 702.384094,369.713440 687.600342,379.637238 
	C681.504028,383.729462 677.917847,382.736481 673.762146,376.858185 
	C673.731323,376.171661 673.700562,375.485107 673.696289,374.454926 
	C674.409241,374.543427 675.245361,374.844025 675.758484,375.428314 
	C680.282837,380.580750 682.272766,380.771057 687.910706,376.702911 
	C699.791321,368.130463 711.173523,358.674805 723.822571,351.438416 
	C730.515564,347.609467 731.020020,343.464996 731.187561,337.218140 
	C731.518311,324.881958 735.889282,314.650604 745.866699,306.186493 
	C756.180359,297.437195 767.969910,295.893982 779.461792,298.602203 
	C795.768799,302.445160 806.876282,313.202942 809.918457,330.773773 
	C812.919983,348.110291 806.147766,361.728455 792.531372,371.150665 
	C784.305420,376.842773 774.094360,380.071411 763.377075,376.277924 
	C759.832825,375.023346 756.155212,374.101074 752.482483,373.277222 
	C751.115417,372.970551 749.272034,372.870422 748.184875,373.544922 
	C741.170105,377.897278 734.338684,382.543610 727.381470,386.990692 
	C718.486633,392.676331 709.500305,398.218872 700.617249,403.922577 
	C697.850464,405.699066 695.049194,407.546051 692.690552,409.806213 
	C688.693848,413.636017 689.453979,417.763580 694.275879,420.635834 
	C707.059998,428.251160 716.869080,438.915863 725.527039,450.835480 
	C727.673950,453.791199 729.769531,456.399506 734.869141,455.300018 
	C755.878784,450.770294 777.067688,447.080048 798.139404,442.827393 
	C813.179626,439.791992 828.150574,436.407318 843.127197,433.065765 
	C849.110046,431.730896 855.081909,430.276581 860.933960,428.471832 
	C862.513733,427.984650 864.365234,426.249176 864.861694,424.693970 
	C874.115173,395.707245 909.224854,386.810516 931.239014,407.747925 
	C945.121277,420.951141 945.939331,443.571411 936.207031,458.326141 
	C921.433899,480.723358 888.460083,481.713287 872.280823,461.406769 
	C869.410400,457.804199 866.681580,457.634064 862.843201,458.467834 
	C847.827209,461.729645 832.760559,464.758209 817.744629,468.020142 
	C807.300293,470.288971 796.934570,472.920746 786.485352,475.165100 
	C775.357544,477.555298 764.170532,479.669281 753.014893,481.931366 
	C751.070679,482.325653 748.881226,482.432220 747.304138,483.447144 
	C745.833435,484.393585 744.047119,486.399963 744.088867,487.892548 
	C744.348083,497.163483 745.616272,506.427948 745.497131,515.681030 
	C745.395630,523.562256 743.906189,531.428589 742.966064,539.293762 
	C742.770569,540.929443 742.227478,542.520691 741.955322,544.150818 
	C741.380981,547.591125 742.634155,549.444397 746.170715,550.744446 
	C764.414246,557.450867 782.518188,564.535889 800.708923,571.387573 
	C813.326538,576.139954 825.967651,580.838562 838.705261,585.252502 
	C840.323486,585.813293 842.809082,584.906738 844.517944,583.984985 
	C850.694641,580.652771 856.473450,576.458679 862.893494,573.756775 
	C865.889404,572.496033 870.031128,573.724731 873.616455,574.142883 
	C883.234802,575.264832 892.076660,578.458618 898.946960,585.521973 
	C910.866638,597.776489 915.133240,619.301575 904.527771,635.226624 
	C899.053345,643.446899 891.969543,649.055237 883.243408,651.999573 
	C871.038147,656.117859 859.102905,654.246704 848.242798,646.697571 
	C839.972595,640.948669 834.889648,633.107300 831.949280,623.668945 
	C831.900146,623.511169 831.747986,623.363831 831.751770,623.214355 
	C832.059448,611.266357 822.373535,611.277466 814.662659,608.788818 
	C812.017395,607.934998 809.627075,606.321045 807.019287,605.316650 
	C795.218323,600.771729 783.375000,596.337219 771.559509,591.829895 
	C763.879089,588.899963 756.270569,585.773438 748.535828,582.996704 
	C742.514771,580.835266 736.408813,578.829468 730.201782,577.328125 
	C728.782288,576.984863 726.553467,578.726196 725.113464,579.984558 
	C721.859863,582.827881 718.866272,585.968750 715.407227,588.971924 
z"/>
<path fill="#D14A64" opacity="1.000000" stroke="none" 
	d="
M243.484863,465.960297 
	C231.606384,465.938904 219.727921,465.917511 207.471161,465.889099 
	C207.057480,464.184082 207.022049,462.486053 207.152985,460.451965 
	C210.560364,464.386780 215.218597,462.990570 219.406784,462.932343 
	C226.182068,462.838135 232.953751,462.381531 239.722137,461.994202 
	C240.851074,461.929596 241.955734,461.440704 243.542969,461.502258 
	C243.837845,463.224548 243.661362,464.592407 243.484863,465.960297 
z"/>
<path fill="#B2EFF5" opacity="1.000000" stroke="none" 
	d="
M673.511108,373.259888 
	C673.208557,373.288361 672.987427,373.024628 672.755615,372.498840 
	C673.027466,372.480408 673.310059,372.723999 673.511108,373.259888 
z"/>
<path fill="#FEFEFE" opacity="1.000000" stroke="none" 
	d="
M243.578201,466.396454 
	C243.661362,464.592407 243.837845,463.224548 243.950851,461.450073 
	C247.550064,451.820862 250.208908,442.026093 255.074158,433.488739 
	C267.008331,412.547089 286.059479,402.224792 309.769745,399.949280 
	C312.576996,399.679840 315.368988,399.167694 318.140747,398.627991 
	C325.882629,397.120483 330.734436,392.785431 332.809723,384.888367 
	C335.700623,373.887604 339.926910,363.366241 347.440887,354.570557 
	C357.026154,343.350220 368.850159,336.218079 383.968842,335.741272 
	C390.616730,335.531647 397.304565,335.367371 403.925507,335.850464 
	C411.312164,336.389465 417.675110,334.215424 423.665436,330.264923 
	C426.997711,328.067352 430.346283,325.894470 433.861176,323.429871 
	C448.256104,315.526398 463.148376,310.099457 479.450653,309.316498 
	C512.715942,307.718872 541.849854,317.740692 564.161499,342.731628 
	C574.817932,354.667694 586.121704,362.576385 602.198669,364.424774 
	C616.087830,366.021545 626.632385,374.316986 635.367432,384.911285 
	C637.483276,387.477509 639.531616,390.099426 641.920410,393.240204 
	C643.244751,396.598724 644.705872,399.337402 645.196045,402.240082 
	C647.104675,413.542389 648.909973,424.871460 650.314209,436.244812 
	C650.835449,440.467102 652.228516,443.117920 656.202515,445.079590 
	C662.152771,448.016815 667.935120,451.414001 673.417603,455.159058 
	C701.234924,474.161102 712.070129,503.765808 703.117737,535.365784 
	C700.064636,546.142456 694.023254,555.277222 687.775635,564.331116 
	C681.131226,569.577942 673.733276,574.143494 668.134888,580.335999 
	C664.952393,583.856262 664.419922,589.968384 663.222778,595.038086 
	C661.699280,601.489563 661.318298,608.254028 659.380920,614.556580 
	C653.025452,635.231506 620.741943,654.544312 595.721191,630.205505 
	C590.874573,625.490906 587.145325,619.643311 582.700073,614.491516 
	C581.247009,612.807556 579.345520,611.245728 577.327942,610.358154 
	C566.867188,605.756470 556.302490,601.390930 545.414429,596.891235 
	C535.621582,583.027344 524.842651,571.368042 506.531952,570.088562 
	C499.369812,569.588135 493.510376,565.417175 488.029205,560.928833 
	C482.628052,556.506104 477.402863,551.793823 471.615387,547.936279 
	C464.321411,543.074646 457.351227,540.927002 448.323090,546.700012 
	C430.459808,558.122681 411.240540,560.416138 392.390808,548.342834 
	C387.578430,545.260498 383.784302,540.571533 379.586395,536.553833 
	C377.543884,534.598999 375.742188,532.389221 373.667969,530.471741 
	C369.239288,526.377808 364.118866,524.347778 358.104492,526.301697 
	C349.562897,529.076660 341.046295,531.936279 332.575562,534.920288 
	C305.598358,544.423889 276.586273,532.857178 259.763367,511.105652 
	C249.645157,498.023041 244.489365,483.242523 243.578201,466.396454 
z"/>
<path fill="#0CB2D3" opacity="1.000000" stroke="none" 
	d="
M688.055420,564.598267 
	C694.023254,555.277222 700.064636,546.142456 703.117737,535.365784 
	C712.070129,503.765808 701.234924,474.161102 673.417603,455.159058 
	C667.935120,451.414001 662.152771,448.016815 656.202515,445.079590 
	C652.228516,443.117920 650.835449,440.467102 650.314209,436.244812 
	C648.909973,424.871460 647.104675,413.542389 645.196045,402.240082 
	C644.705872,399.337402 643.244751,396.598724 642.205200,393.430450 
	C650.643372,388.366150 659.084595,383.616730 667.586914,378.979340 
	C669.278931,378.056519 671.204590,377.562256 673.392334,376.864258 
	C677.917847,382.736481 681.504028,383.729462 687.600342,379.637238 
	C702.384094,369.713440 717.033569,359.582886 731.513123,349.222504 
	C733.009888,348.151550 733.812927,344.873535 733.557373,342.788788 
	C731.675903,327.441833 738.682007,312.566193 751.720215,305.045013 
	C765.023071,297.371185 781.385132,298.425079 793.551514,307.739502 
	C808.166626,318.928589 812.351074,338.262939 803.847107,355.310944 
	C796.214600,370.611877 777.106873,378.475464 759.945923,373.373383 
	C759.148621,373.136353 758.253845,373.017548 757.591980,372.567780 
	C752.121826,368.851074 747.585144,370.433899 742.406189,373.930511 
	C726.683655,384.545807 710.587036,394.606598 694.660706,404.921417 
	C693.135681,405.909119 691.581177,406.983429 690.386719,408.325775 
	C686.013672,413.240204 686.880310,418.507050 692.384155,422.127380 
	C705.042236,430.453827 716.079651,440.614258 724.441650,453.221283 
	C727.636047,458.037354 731.134033,458.480377 735.792236,457.564667 
	C753.252625,454.132263 770.742920,450.840637 788.155396,447.179291 
	C811.759583,442.215973 835.284119,436.874390 858.886536,431.902588 
	C863.772888,430.873230 866.349915,428.741791 867.975159,423.690247 
	C873.553955,406.350555 891.763245,395.866211 909.382202,399.133911 
	C928.835938,402.741943 940.904419,418.018738 940.400696,438.398438 
	C939.970398,455.809601 926.175049,470.881805 908.354187,473.213257 
	C893.690308,475.131744 881.910583,469.785950 872.887695,458.320953 
	C871.007751,455.932159 869.516907,455.020691 866.296204,455.717407 
	C835.078674,462.470428 803.813965,469.005890 772.557861,475.580078 
	C763.605286,477.463104 754.664429,479.425354 745.661804,481.036102 
	C742.078491,481.677216 740.956299,483.223633 741.334167,486.753845 
	C743.468140,506.693848 743.925232,526.600952 739.380310,546.324890 
	C738.711609,549.227112 740.020874,550.563354 742.571594,551.537415 
	C766.988464,560.862244 791.365906,570.290344 815.786438,579.605530 
	C823.252380,582.453308 830.880798,584.881958 838.305420,587.828430 
	C841.455750,589.078552 843.519836,588.354309 845.897583,586.237305 
	C860.365112,573.356384 882.061157,573.389099 895.976807,586.176331 
	C910.458862,599.484009 912.476868,621.270813 900.678894,636.941040 
	C891.836182,648.685913 874.873047,654.365295 860.844482,650.277771 
	C845.588684,645.832581 835.019104,633.349243 833.694641,617.967529 
	C833.428223,614.873047 832.639526,612.621521 829.438416,611.424988 
	C798.410889,599.827454 767.412964,588.150818 736.403259,576.505615 
	C735.469055,576.154663 734.455872,575.994690 733.552063,575.585449 
	C728.716736,573.395935 725.150452,574.301941 722.393005,579.195740 
	C720.793579,582.034241 718.218628,584.323059 715.818115,586.990479 
	C706.480713,579.702881 697.407959,572.284119 688.055420,564.598267 
z"/>
</svg>