<svg version="1.1" id="Layer_1" xmlns="http://www.w3.org/2000/svg" xmlns:xlink="http://www.w3.org/1999/xlink" x="0px" y="0px"
	 width="100%" viewBox="0 0 515 522" enable-background="new 0 0 515 522" xml:space="preserve">
<path fill="#FFFFFF" opacity="1.000000" stroke="none" 
	d="
M306.000000,523.000000 
	C204.024460,523.000000 102.548935,523.000000 1.036699,523.000000 
	C1.036699,349.066406 1.036699,175.132812 1.036699,1.099610 
	C172.558823,1.099610 344.117737,1.099610 515.838318,1.099610 
	C515.838318,174.999878 515.838318,348.999939 515.838318,523.000000 
	C446.132843,523.000000 376.316437,523.000000 306.000000,523.000000 
M208.728806,283.637238 
	C207.340210,278.599152 205.951614,273.561096 204.343079,267.725006 
	C202.494888,269.082123 200.630890,269.730194 200.115692,270.948608 
	C197.232147,277.768188 194.156616,284.580170 192.163971,291.680298 
	C190.473358,297.704254 190.401169,304.161804 189.198410,310.346893 
	C184.209274,336.003174 175.438660,360.491394 165.985153,384.767242 
	C164.726715,387.998810 163.668793,391.396149 163.194260,394.810699 
	C162.930939,396.705444 164.067856,398.794769 164.573639,400.796387 
	C166.381332,400.218719 168.329620,399.894257 169.956436,398.990875 
	C171.523010,398.120911 172.717010,396.602478 174.144028,395.455109 
	C184.522583,387.110413 196.321106,383.414886 209.457336,386.024750 
	C222.645142,388.644836 232.250046,397.204620 239.324265,407.924988 
	C256.928375,434.602539 266.644501,463.616364 262.929474,496.157196 
	C262.694763,498.213104 264.182922,500.465698 264.869568,502.626801 
	C266.868652,501.382172 268.900208,500.185181 270.844788,498.860504 
	C271.350739,498.515808 271.634430,497.798035 271.937378,497.209015 
	C276.939880,487.483704 281.517212,477.749542 283.769165,466.784302 
	C288.774292,442.412964 285.234955,419.275360 276.014435,396.614288 
	C268.137970,377.256470 254.805893,361.351196 243.007904,344.489471 
	C229.742599,325.530640 216.941437,306.341919 208.728806,283.637238 
M396.670532,316.766754 
	C385.458221,315.592468 374.224701,313.307648 363.038910,313.521301 
	C348.630188,313.796539 334.278595,316.316864 319.868713,317.436005 
	C292.534271,319.558899 265.167694,321.501831 237.942062,312.164886 
	C237.745178,313.822540 236.881226,315.753876 237.501938,316.824188 
	C239.805496,320.796356 241.917206,325.295929 245.316452,328.149506 
	C268.841797,347.898438 290.992462,368.942444 310.069153,393.125031 
	C315.000061,399.375702 320.532104,405.180573 326.118073,410.865936 
	C327.494232,412.266632 330.164490,412.395905 332.239838,413.109619 
	C332.601074,411.185608 333.261841,409.262909 333.270264,407.337341 
	C333.302032,400.065979 332.235199,392.670624 333.223633,385.549866 
	C334.806732,374.144806 340.972015,365.200623 351.260498,359.481903 
	C367.508118,350.450745 385.269104,350.608154 402.788879,352.448120 
	C425.566650,354.840271 446.669708,362.696625 465.497864,376.127258 
	C466.802612,377.057953 468.735352,377.108307 470.376007,377.568054 
	C470.631226,375.700165 471.678619,373.451447 470.997131,372.033966 
	C468.707886,367.272552 466.208649,362.505280 463.064850,358.279510 
	C446.558807,336.092865 424.197754,323.012085 396.670532,316.766754 
M54.984467,164.447617 
	C55.865181,165.448013 56.785591,166.416428 57.620819,167.453445 
	C80.152695,195.429626 110.359390,207.896072 145.302231,208.795486 
	C162.987671,209.250702 180.766479,206.836334 198.476624,205.394592 
	C224.430405,203.281769 250.296524,202.110565 275.825043,209.009201 
	C277.531982,209.470474 279.472565,209.067169 281.304474,209.065979 
	C280.880493,206.912811 281.110901,204.253403 279.910156,202.701111 
	C276.266754,197.991074 272.579407,193.080017 267.999298,189.370712 
	C249.040482,174.016495 231.426407,157.348740 215.810715,138.583313 
	C208.903214,130.282532 202.081070,121.891861 194.762314,113.964737 
	C192.806503,111.846321 189.164169,111.284996 186.296112,110.008827 
	C186.121109,113.021118 185.909210,116.031799 185.778381,119.046013 
	C185.457855,126.430405 186.408966,134.127670 184.640060,141.142151 
	C179.764847,160.474289 164.310043,168.575027 146.593918,170.644363 
	C112.911545,174.578629 81.660042,166.485092 53.521381,147.131439 
	C52.010883,146.092529 49.750446,146.143982 47.839115,145.687851 
	C47.813129,147.876373 47.094193,150.372833 47.902065,152.190796 
	C49.713291,156.266632 52.283588,160.005142 54.984467,164.447617 
M392.389221,215.019440 
	C393.173462,212.837997 393.751038,210.553864 394.775574,208.491837 
	C401.225983,195.509659 408.676849,183.302353 418.548950,172.432266 
	C430.482361,159.292480 443.905823,148.545883 460.010468,141.073517 
	C461.969940,140.164352 463.392365,138.097702 465.063660,136.567474 
	C462.911133,135.405151 460.783539,134.191956 458.588531,133.116257 
	C458.040375,132.847610 457.275177,133.020142 456.609589,132.993088 
	C439.913574,132.314392 424.119049,136.572266 409.549286,143.966965 
	C390.896545,153.433929 375.347473,167.284363 364.261932,185.049622 
	C356.397217,197.653351 350.319092,211.413300 343.929565,224.887650 
	C330.266449,253.700775 317.613708,283.102753 292.809784,305.551239 
	C294.103241,306.397980 295.402557,307.980164 296.647156,307.938202 
	C302.407898,307.743988 308.644287,308.382080 313.822693,306.401398 
	C342.135498,295.572052 371.011902,287.145569 401.057434,282.742432 
	C408.716370,281.620026 416.236938,279.461700 423.744873,277.489319 
	C425.020355,277.154236 426.791718,275.307526 426.744263,274.229156 
	C426.689636,272.988190 424.991669,271.674591 423.773346,270.678986 
	C422.911224,269.974426 421.640076,269.788971 420.585907,269.297882 
	C412.134674,265.360901 403.637238,261.562683 397.740051,253.778625 
	C388.892212,242.099762 388.662292,229.246140 392.389221,215.019440 
M235.857986,51.503693 
	C232.538757,67.410965 231.956696,83.247131 234.745102,99.432236 
	C238.099884,118.904861 246.503036,136.060776 257.082550,152.226471 
	C266.730469,166.968719 277.757080,180.806946 287.452209,195.520554 
	C297.982544,211.501694 307.060760,228.331680 312.395569,246.902786 
	C313.099701,249.353928 313.753052,251.819641 314.459106,254.384583 
	C319.852203,253.216751 321.920715,249.478729 322.947601,245.472198 
	C325.082916,237.141083 327.092590,228.734055 328.395691,220.241898 
	C331.792419,198.106583 338.980347,177.082138 346.267944,156.048691 
	C349.464172,146.823730 352.267151,137.457413 355.005859,128.084320 
	C355.441376,126.593925 354.591949,124.728096 354.336578,123.035843 
	C352.525116,123.546761 350.525360,123.733078 348.948212,124.647949 
	C346.812531,125.886833 345.100739,127.833382 343.034241,129.218491 
	C328.389709,139.034225 313.024750,142.544708 297.523376,131.863190 
	C290.534668,127.047485 283.521576,121.225739 278.835083,114.294754 
	C260.693695,87.464920 252.364594,57.714607 255.446991,25.127560 
	C255.569138,23.836136 255.003616,21.407465 254.480789,21.327633 
	C252.892166,21.085066 250.864609,21.288164 249.576569,22.158857 
	C248.163208,23.114250 247.100845,24.880119 246.374008,26.510574 
	C242.800903,34.525757 239.390121,42.613304 235.857986,51.503693 
M183.187241,279.686493 
	C195.141968,257.477020 206.047073,234.545639 227.431870,216.677155 
	C222.982132,215.602768 219.784103,214.144760 216.635590,214.244766 
	C212.739548,214.368530 208.772644,215.449738 205.030518,216.698944 
	C184.574982,223.527374 164.567062,231.757034 143.180435,235.592178 
	C128.651062,238.197678 114.151451,241.003311 99.725052,244.119934 
	C96.847549,244.741577 94.362274,247.178787 91.696136,248.778824 
	C94.300758,250.455704 96.714668,252.626602 99.544861,253.719162 
	C108.980186,257.361542 116.860512,262.995422 122.572662,271.298370 
	C132.594299,285.865448 130.691376,301.384399 123.574158,315.923523 
	C109.148499,345.392395 88.327667,369.024536 57.568977,382.631226 
	C55.957642,383.344025 55.028851,385.599762 53.782295,387.137146 
	C55.498505,388.129517 57.170071,389.895508 58.937664,389.997498 
	C82.842789,391.377167 104.186302,383.911987 123.393166,370.176392 
	C142.366577,356.607758 156.069916,338.540955 166.021133,317.604645 
	C171.869537,305.300232 177.304749,292.799438 183.187241,279.686493 
M32.630566,295.260529 
	C32.425800,299.849518 31.364923,304.597961 32.183914,308.996307 
	C34.270260,320.200958 40.577145,328.547211 51.692219,332.278168 
	C63.036320,336.085999 73.564644,333.843597 82.407875,325.922363 
	C92.046036,317.289032 94.755714,303.728851 89.907776,292.084625 
	C85.034065,280.378479 73.272888,272.731995 60.778255,273.146301 
	C48.155361,273.564789 37.032524,282.069305 32.630566,295.260529 
M381.483002,439.325165 
	C388.807556,441.955963 396.001770,442.866150 403.775360,440.335205 
	C420.373199,434.931335 432.659454,413.972351 419.616486,394.621460 
	C410.645538,381.312042 393.460785,376.898224 378.199432,386.301727 
	C372.445099,389.847351 367.738281,394.766724 365.942902,401.447113 
	C361.797089,416.873627 365.866302,429.832764 381.483002,439.325165 
M222.643738,469.969208 
	C226.764221,462.603058 228.623718,454.677551 226.317871,446.518311 
	C222.109924,431.628418 211.889664,424.453003 196.394135,423.851715 
	C185.151199,423.415466 177.002823,428.904907 171.425598,437.471649 
	C162.635025,450.974213 167.125381,470.939301 180.243118,479.014709 
	C192.970154,486.849670 212.311340,485.557465 222.643738,469.969208 
M100.360657,92.949608 
	C98.595764,96.332207 96.267311,99.543587 95.177338,103.131233 
	C92.485687,111.990829 93.181824,120.954773 99.047844,128.215332 
	C108.357491,139.738190 119.945503,145.048309 135.092697,139.279419 
	C154.532349,131.875702 158.758148,112.457802 151.181534,97.511963 
	C140.344864,76.135269 110.793175,77.565392 100.360657,92.949608 
M428.201965,228.977005 
	C429.439453,235.124939 434.225861,238.712708 438.212036,242.886093 
	C442.558746,247.436874 448.011719,249.606934 454.144257,249.952484 
	C476.672180,251.221878 492.451813,228.609940 485.544403,209.657074 
	C480.206177,195.009659 463.146149,185.484940 447.309601,190.898102 
	C433.259766,195.700500 423.408295,210.777939 428.201965,228.977005 
M306.363220,95.250694 
	C318.438751,102.839111 333.918457,99.789673 343.612854,90.743103 
	C352.323822,82.614273 354.369171,67.243156 348.692413,56.090481 
	C342.132965,43.203720 330.352570,38.070076 317.423218,39.645344 
	C304.541077,41.214863 294.936920,50.548988 291.987762,63.122223 
	C289.273621,74.693466 294.845581,87.590042 306.363220,95.250694 
z"/>
<path fill="#ED1F27" opacity="1.000000" stroke="none" 
	d="
M208.863190,284.011902 
	C216.941437,306.341919 229.742599,325.530640 243.007904,344.489471 
	C254.805893,361.351196 268.137970,377.256470 276.014435,396.614288 
	C285.234955,419.275360 288.774292,442.412964 283.769165,466.784302 
	C281.517212,477.749542 276.939880,487.483704 271.937378,497.209015 
	C271.634430,497.798035 271.350739,498.515808 270.844788,498.860504 
	C268.900208,500.185181 266.868652,501.382172 264.869568,502.626770 
	C264.182922,500.465698 262.694763,498.213104 262.929474,496.157196 
	C266.644501,463.616364 256.928375,434.602539 239.324265,407.924988 
	C232.250046,397.204620 222.645142,388.644836 209.457336,386.024750 
	C196.321106,383.414886 184.522583,387.110413 174.144028,395.455109 
	C172.717010,396.602478 171.523010,398.120911 169.956436,398.990875 
	C168.329620,399.894257 166.381332,400.218719 164.573639,400.796387 
	C164.067856,398.794769 162.930939,396.705444 163.194260,394.810699 
	C163.668793,391.396149 164.726715,387.998810 165.985153,384.767242 
	C175.438660,360.491394 184.209274,336.003174 189.198410,310.346893 
	C190.401169,304.161804 190.473358,297.704254 192.163971,291.680298 
	C194.156616,284.580170 197.232147,277.768188 200.115692,270.948608 
	C200.630890,269.730194 202.494888,269.082123 204.343079,267.725006 
	C205.951614,273.561096 207.340210,278.599152 208.863190,284.011902 
z"/>
<path fill="#FAA41F" opacity="1.000000" stroke="none" 
	d="
M397.085297,316.823364 
	C424.197754,323.012085 446.558807,336.092865 463.064850,358.279510 
	C466.208649,362.505280 468.707886,367.272552 470.997131,372.033966 
	C471.678619,373.451447 470.631226,375.700165 470.376038,377.568054 
	C468.735352,377.108307 466.802612,377.057953 465.497864,376.127258 
	C446.669708,362.696625 425.566650,354.840271 402.788879,352.448120 
	C385.269104,350.608154 367.508118,350.450745 351.260498,359.481903 
	C340.972015,365.200623 334.806732,374.144806 333.223633,385.549866 
	C332.235199,392.670624 333.302032,400.065979 333.270264,407.337341 
	C333.261841,409.262909 332.601074,411.185608 332.239868,413.109619 
	C330.164490,412.395905 327.494232,412.266632 326.118073,410.865936 
	C320.532104,405.180573 315.000061,399.375702 310.069153,393.125031 
	C290.992462,368.942444 268.841797,347.898438 245.316452,328.149506 
	C241.917206,325.295929 239.805496,320.796356 237.501938,316.824188 
	C236.881226,315.753876 237.745178,313.822540 237.942062,312.164886 
	C265.167694,321.501831 292.534271,319.558899 319.868713,317.436005 
	C334.278595,316.316864 348.630188,313.796539 363.038910,313.521301 
	C374.224701,313.307648 385.458221,315.592468 397.085297,316.823364 
z"/>
<path fill="#16A7E0" opacity="1.000000" stroke="none" 
	d="
M54.764633,164.164307 
	C52.283588,160.005142 49.713291,156.266632 47.902065,152.190796 
	C47.094193,150.372833 47.813129,147.876373 47.839111,145.687866 
	C49.750446,146.143982 52.010883,146.092529 53.521381,147.131439 
	C81.660042,166.485092 112.911545,174.578629 146.593918,170.644363 
	C164.310043,168.575027 179.764847,160.474289 184.640060,141.142151 
	C186.408966,134.127670 185.457855,126.430405 185.778381,119.046013 
	C185.909210,116.031799 186.121109,113.021118 186.296112,110.008827 
	C189.164169,111.284996 192.806503,111.846321 194.762314,113.964737 
	C202.081070,121.891861 208.903214,130.282532 215.810715,138.583313 
	C231.426407,157.348740 249.040482,174.016495 267.999298,189.370712 
	C272.579407,193.080017 276.266754,197.991074 279.910156,202.701111 
	C281.110901,204.253403 280.880493,206.912811 281.304474,209.065979 
	C279.472565,209.067169 277.531982,209.470474 275.825043,209.009201 
	C250.296524,202.110565 224.430405,203.281769 198.476624,205.394592 
	C180.766479,206.836334 162.987671,209.250702 145.302231,208.795486 
	C110.359390,207.896072 80.152695,195.429626 57.620819,167.453445 
	C56.785591,166.416428 55.865181,165.448013 54.764633,164.164307 
z"/>
<path fill="#89BF42" opacity="1.000000" stroke="none" 
	d="
M392.263428,215.409454 
	C388.662292,229.246140 388.892212,242.099762 397.740051,253.778625 
	C403.637238,261.562683 412.134674,265.360901 420.585907,269.297882 
	C421.640076,269.788971 422.911224,269.974426 423.773346,270.678986 
	C424.991669,271.674591 426.689636,272.988190 426.744263,274.229156 
	C426.791718,275.307526 425.020355,277.154236 423.744873,277.489319 
	C416.236938,279.461700 408.716370,281.620026 401.057434,282.742432 
	C371.011902,287.145569 342.135498,295.572052 313.822693,306.401398 
	C308.644287,308.382080 302.407898,307.743988 296.647156,307.938202 
	C295.402557,307.980164 294.103241,306.397980 292.809784,305.551239 
	C317.613708,283.102753 330.266449,253.700775 343.929565,224.887650 
	C350.319092,211.413300 356.397217,197.653351 364.261932,185.049622 
	C375.347473,167.284363 390.896545,153.433929 409.549286,143.966965 
	C424.119049,136.572266 439.913574,132.314392 456.609589,132.993088 
	C457.275177,133.020142 458.040375,132.847610 458.588531,133.116257 
	C460.783539,134.191956 462.911133,135.405151 465.063660,136.567474 
	C463.392365,138.097702 461.969940,140.164352 460.010468,141.073517 
	C443.905823,148.545883 430.482361,159.292480 418.548950,172.432266 
	C408.676849,183.302353 401.225983,195.509659 394.775574,208.491837 
	C393.751038,210.553864 393.173462,212.837997 392.263428,215.409454 
z"/>
<path fill="#4FBE95" opacity="1.000000" stroke="none" 
	d="
M235.890015,51.089493 
	C239.390121,42.613304 242.800903,34.525757 246.374008,26.510574 
	C247.100845,24.880119 248.163208,23.114250 249.576569,22.158857 
	C250.864609,21.288164 252.892166,21.085066 254.480789,21.327633 
	C255.003616,21.407465 255.569138,23.836136 255.446991,25.127560 
	C252.364594,57.714607 260.693695,87.464920 278.835083,114.294754 
	C283.521576,121.225739 290.534668,127.047485 297.523376,131.863190 
	C313.024750,142.544708 328.389709,139.034225 343.034241,129.218491 
	C345.100739,127.833382 346.812531,125.886833 348.948212,124.647949 
	C350.525360,123.733078 352.525116,123.546761 354.336578,123.035843 
	C354.591949,124.728096 355.441376,126.593925 355.005859,128.084320 
	C352.267151,137.457413 349.464172,146.823730 346.267944,156.048691 
	C338.980347,177.082138 331.792419,198.106583 328.395691,220.241898 
	C327.092590,228.734055 325.082916,237.141083 322.947601,245.472198 
	C321.920715,249.478729 319.852203,253.216751 314.459106,254.384583 
	C313.753052,251.819641 313.099701,249.353928 312.395569,246.902786 
	C307.060760,228.331680 297.982544,211.501694 287.452209,195.520554 
	C277.757080,180.806946 266.730469,166.968719 257.082550,152.226471 
	C246.503036,136.060776 238.099884,118.904861 234.745102,99.432236 
	C231.956696,83.247131 232.538757,67.410965 235.890015,51.089493 
z"/>
<path fill="#B6469B" opacity="1.000000" stroke="none" 
	d="
M183.056519,280.036743 
	C177.304749,292.799438 171.869537,305.300232 166.021133,317.604645 
	C156.069916,338.540955 142.366577,356.607758 123.393166,370.176392 
	C104.186302,383.911987 82.842789,391.377167 58.937664,389.997498 
	C57.170071,389.895508 55.498505,388.129517 53.782299,387.137146 
	C55.028851,385.599762 55.957642,383.344025 57.568977,382.631226 
	C88.327667,369.024536 109.148499,345.392395 123.574158,315.923523 
	C130.691376,301.384399 132.594299,285.865448 122.572662,271.298370 
	C116.860512,262.995422 108.980186,257.361542 99.544861,253.719162 
	C96.714668,252.626602 94.300758,250.455704 91.696136,248.778824 
	C94.362274,247.178787 96.847549,244.741577 99.725052,244.119934 
	C114.151451,241.003311 128.651062,238.197678 143.180435,235.592178 
	C164.567062,231.757034 184.574982,223.527374 205.030518,216.698944 
	C208.772644,215.449738 212.739548,214.368530 216.635590,214.244766 
	C219.784103,214.144760 222.982132,215.602768 227.431870,216.677155 
	C206.047073,234.545639 195.141968,257.477020 183.056519,280.036743 
z"/>
<path fill="#B7479B" opacity="1.000000" stroke="none" 
	d="
M32.745468,294.876343 
	C37.032524,282.069305 48.155361,273.564789 60.778255,273.146301 
	C73.272888,272.731995 85.034065,280.378479 89.907776,292.084625 
	C94.755714,303.728851 92.046036,317.289032 82.407875,325.922363 
	C73.564644,333.843597 63.036320,336.085999 51.692219,332.278168 
	C40.577145,328.547211 34.270260,320.200958 32.183914,308.996307 
	C31.364923,304.597961 32.425800,299.849518 32.745468,294.876343 
z"/>
<path fill="#FAA41F" opacity="1.000000" stroke="none" 
	d="
M381.163330,439.121033 
	C365.866302,429.832764 361.797089,416.873627 365.942902,401.447113 
	C367.738281,394.766724 372.445099,389.847351 378.199432,386.301727 
	C393.460785,376.898224 410.645538,381.312042 419.616486,394.621460 
	C432.659454,413.972351 420.373199,434.931335 403.775360,440.335205 
	C396.001770,442.866150 388.807556,441.955963 381.163330,439.121033 
z"/>
<path fill="#ED1E27" opacity="1.000000" stroke="none" 
	d="
M222.387299,470.232849 
	C212.311340,485.557465 192.970154,486.849670 180.243118,479.014709 
	C167.125381,470.939301 162.635025,450.974213 171.425598,437.471649 
	C177.002823,428.904907 185.151199,423.415466 196.394135,423.851715 
	C211.889664,424.453003 222.109924,431.628418 226.317871,446.518311 
	C228.623718,454.677551 226.764221,462.603058 222.387299,470.232849 
z"/>
<path fill="#17A7E0" opacity="1.000000" stroke="none" 
	d="
M100.608536,92.686104 
	C110.793175,77.565392 140.344864,76.135269 151.181534,97.511963 
	C158.758148,112.457802 154.532349,131.875702 135.092697,139.279419 
	C119.945503,145.048309 108.357491,139.738190 99.047844,128.215332 
	C93.181824,120.954773 92.485687,111.990829 95.177338,103.131233 
	C96.267311,99.543587 98.595764,96.332207 100.608536,92.686104 
z"/>
<path fill="#89BF42" opacity="1.000000" stroke="none" 
	d="
M428.113800,228.575745 
	C423.408295,210.777939 433.259766,195.700500 447.309601,190.898102 
	C463.146149,185.484940 480.206177,195.009659 485.544403,209.657074 
	C492.451813,228.609940 476.672180,251.221878 454.144257,249.952484 
	C448.011719,249.606934 442.558746,247.436874 438.212036,242.886093 
	C434.225861,238.712708 429.439453,235.124939 428.113800,228.575745 
z"/>
<path fill="#4FBE95" opacity="1.000000" stroke="none" 
	d="
M306.040710,95.076401 
	C294.845581,87.590042 289.273621,74.693466 291.987762,63.122223 
	C294.936920,50.548988 304.541077,41.214863 317.423218,39.645344 
	C330.352570,38.070076 342.132965,43.203720 348.692413,56.090481 
	C354.369171,67.243156 352.323822,82.614273 343.612854,90.743103 
	C333.918457,99.789673 318.438751,102.839111 306.040710,95.076401 
z"/>
</svg>